{"title":"Pyaar Ka Punchnama 2 (2015)DesiPreDVDRip.Hindi.Mafiaking - M2Tv","uid":12590344,"size":733986061,"categoryP":"video","categoryS":"movies","magnet":"?xt=urn:btih:ac2a758cd39b4306b201d697fd9a1d33779aa948&amp;dn=Pyaar+Ka+Punchnama+2+%282015%29DesiPreDVDRip.Hindi.Mafiaking+-+M2Tv&amp;tr=udp%3A%2F%2Ftracker.leechers-paradise.org%3A6969&amp;tr=udp%3A%2F%2Fzer0day.ch%3A1337&amp;tr=udp%3A%2F%2Fopen.demonii.com%3A1337&amp;tr=udp%3A%2F%2Ftracker.coppersurfer.tk%3A6969&amp;tr=udp%3A%2F%2Fexodus.desync.com%3A6969","seeders":3,"leechers":2,"uploader":"SaM","files":3,"time":1445093778,"description":"Pyaar Ka Punchnama 2 (2015) - 1CD - Desi-PreDVD-Rip - Hindi - x264 - MP3 - Mafiaking - M2Tv ExClusive\r\n\r\n\r\n-=Extreme Seeded=-\r\n\r\nRatings: 8.3/10\r\n\r\nGENRE: Comedy, Drama, Romance\r\n\r\n\r\nGeneral\r\nUnique ID : 215834009375180825086168444345691495202 (0xA2601E403601FE2C9F224CCF66955B22)\r\nComplete name : Pyaar Ka Punchnama 2 (2015) - 1CD - Desi-PreDVD-Rip - Hindi - x264 - MP3 - Mafiaking - M2Tv ExClusive.mkv\r\nFormat : Matroska\r\nFormat version : Version 4 / Version 2\r\nFile size : 694 MiB\r\nDuration : 2h 9mn\r\nOverall bit rate : 752 Kbps\r\nMovie name : Pyaar Ka Punchnama 2 (2015) - 1CD - Desi-PreDVD-Rip - Hindi - x264 - MP3 - Mafiaking - M2Tv ExClusive\r\nEncoded date : UTC 2015-10-16 19:24:40\r\nWriting application : mkvmerge v7.6.0 ('Garden of Dreams') 64bit built on Feb 8 2015 13:04:34\r\nWriting library : libebml v1.3.1 + libmatroska v1.4.2\r\n\r\nVideo\r\nID : 1\r\nFormat : AVC\r\nFormat/Info : Advanced Video Codec\r\nFormat profile :   \r\nFormat settings, CABAC : Yes\r\nFormat settings, ReFrames : 4 frames\r\nCodec ID : V_MPEG4/ISO/AVC\r\nDuration : 2h 9mn\r\nBit rate : 686 Kbps\r\nWidth : 640 pixels\r\nHeight : 272 pixels\r\nDisplay aspect ratio : 2.35:1\r\nFrame rate mode : Constant\r\nFrame rate : 25.000 fps\r\nColor space : YUV\r\nChroma subsampling : 4:2:0\r\nBit depth : 8 bits\r\nScan type : Progressive\r\nBits/(Pixel*Frame) : 0.158\r\nStream size : 621 MiB (89%)\r\nTitle : Mafiaking\r\nLanguage : Hindi\r\nDefault : Yes\r\nForced : No\r\n\r\nAudio\r\nID : 2\r\nFormat : MPEG Audio\r\nFormat version : Version 2\r\nFormat profile : Layer 3\r\nMode : Joint stereo\r\nMode extension : MS Stereo\r\nCodec ID : A_MPEG/L3\r\nCodec ID/Hint : MP3\r\nDuration : 2h 9mn\r\nBit rate mode : Constant\r\nBit rate : 64.0 Kbps\r\nChannel(s) : 2 channels\r\nSampling rate : 24.0 KHz\r\nCompression mode : Lossy\r\nStream size : 59.1 MiB (9%)\r\nTitle : Mafiaking\r\nWriting library : LAME3.99r\r\nLanguage : Hindi\r\nDefault : Yes\r\nForced : No\r\n\r\n \nhttp://extraimago.com/image/9DH \nhttp://extraimago.com/image/9DF \nhttp://extraimago.com/image/9DD \nhttp://extraimago.com/image/9D5 \nhttp://extraimago.com/image/9Dg \nhttp://extraimago.com/image/9DX \nhttp://extraimago.com/image/9DP \nhttp://extraimago.com/image/9DG \nhttp://extraimago.com/image/9Dr \nhttp://extraimago.com/image/9Dp \nhttp://extraimago.com/image/9D4 \nhttp://extraimago.com/image/9DJ \nhttp://extraimago.com/image/9D0 \nhttp://extraimago.com/image/9Dz","torrent":{"xt":"urn:btih:ac2a758cd39b4306b201d697fd9a1d33779aa948","amp;dn":"Pyaar+Ka+Punchnama+2+%282015%29DesiPreDVDRip.Hindi.Mafiaking+-+M2Tv","amp;tr":["udp%3A%2F%2Ftracker.leechers-paradise.org%3A6969","udp%3A%2F%2Fzer0day.ch%3A1337","udp%3A%2F%2Fopen.demonii.com%3A1337","udp%3A%2F%2Ftracker.coppersurfer.tk%3A6969","udp%3A%2F%2Fexodus.desync.com%3A6969"],"infoHash":"ac2a758cd39b4306b201d697fd9a1d33779aa948","infoHashBuffer":{"type":"Buffer","data":[172,42,117,140,211,155,67,6,178,1,214,151,253,154,29,51,119,154,169,72]},"announce":[],"urlList":[]}}